FFmpeg version SVN-r25716, Copyright (c) 2000-2010 the FFmpeg developers  built on Nov 10 2010 12:23:18 with gcc 4.1.2 20080704 (Red Hat 4.1.2-48)  configuration: --enable-libmp3lame --enable-shared --disable-mmx --arch=x86_64  libavutil     50.33. 0 / 50.33. 0  libavcore      0.12. 1 /  0.12. 1  libavcodec    52.94. 4 / 52.94. 4  libavformat   52.84. 0 / 52.84. 0  libavdevice   52. 2. 2 / 52. 2. 2  libavfilter    1.59. 0 /  1.59. 0  libswscale     0.12. 0 /  0.12. 0Seems stream 0 codec frame rate differs from container frame rate: 1200.00 (1200/1) -> 15.00 (15/1)Input #0, mov,mp4,m4a,3gp,3g2,mj2, from '/RAID10/data/converted_video_files/15797.mov':  Metadata:    major_brand     : qt      minor_version   : 537199360    compatible_brands: qt    Duration: 00:00:06.66, start: 0.000000, bitrate: 6218 kb/s    Stream #0.0(eng): Video: h264, yuv420p, 768x768, 6213 kb/s, PAR 1:1 DAR 1:1, 15 fps, 15 tbr, 600 tbn, 1200 tbc[buffer @ 0x81de80] w:768 h:768 pixfmt:yuv420pOutput #0, flv, to '/RAID10/data/converted_video_files/15797.flv':  Metadata:    encoder         : Lavf52.84.0    Stream #0.0(eng): Video: flv, yuv420p, 768x768 [PAR 1:1 DAR 1:1], q=2-31, 600 kb/s, 1k tbn, 24 tbcStream mapping:  Stream #0.0 -> #0.0Press [q] to stop encodingframe=   24 fps=  0 q=25.1 size=     314kB time=1.58 bitrate=1626.1kbits/s    frame=   47 fps= 44 q=25.3 size=     399kB time=3.12 bitrate=1045.9kbits/s    frame=   69 fps= 44 q=19.2 size=     478kB time=4.58 bitrate= 853.6kbits/s    frame=   93 fps= 45 q=14.6 size=     563kB time=6.17 bitrate= 748.0kbits/s    frame=  100 fps= 45 q=15.4 Lsize=     601kB time=6.62 bitrate= 743.0kbits/s    video:599kB audio:0kB global headers:0kB muxing overhead 0.295050%